<svg xmlns="http://www.w3.org/2000/svg" version="1.1" xmlns:xlink="http://www.w3.org/1999/xlink" xmlns:svgjs="http://svgjs.dev/svgjs" width="1440" height="560" preserveAspectRatio="none" viewBox="0 0 1440 560"><g mask="url(&quot;#SvgjsMask1000&quot;)" fill="none"><rect width="1440" height="560" x="0" y="0" fill="#0e2a47"></rect><g transform="translate(0, 0)" stroke-linecap="round"><path d="M260 120.63 L260 439.37" stroke-width="15" stroke="#3a7cc3"></path><path d="M280 258.4 L280 301.6" stroke-width="15" stroke="#dd1133"></path><path d="M300 210.43 L300 349.57" stroke-width="15" stroke="#dd1133"></path><path d="M320 110.31 L320 449.69" stroke-width="15" stroke="#dd1133"></path><path d="M340 160.7 L340 399.3" stroke-width="15" stroke="#3a7cc3"></path><path d="M360 220.28 L360 339.72" stroke-width="15" stroke="#dd1133"></path><path d="M380 215.53 L380 344.48" stroke-width="15" stroke="#dd1133"></path><path d="M400 215.05 L400 344.95" stroke-width="15" stroke="#3a7cc3"></path><path d="M420 106.53 L420 453.48" stroke-width="15" stroke="#dd1133"></path><path d="M440 209.58 L440 350.42" stroke-width="15" stroke="#3a7cc3"></path><path d="M460 192.11 L460 367.89" stroke-width="15" stroke="#dd1133"></path><path d="M480 230.84 L480 329.16" stroke-width="15" stroke="#dd1133"></path><path d="M500 123.9 L500 436.1" stroke-width="15" stroke="#dd1133"></path><path d="M520 126 L520 434" stroke-width="15" stroke="#3a7cc3"></path><path d="M540 169.06 L540 390.94" stroke-width="15" stroke="#3a7cc3"></path><path d="M560 136.03 L560 423.97" stroke-width="15" stroke="#3a7cc3"></path><path d="M580 248.63 L580 311.37" stroke-width="15" stroke="#dd1133"></path><path d="M600 168.62 L600 391.38" stroke-width="15" stroke="#dd1133"></path><path d="M620 189.02 L620 370.98" stroke-width="15" stroke="#dd1133"></path><path d="M640 143.01 L640 416.99" stroke-width="15" stroke="#3a7cc3"></path><path d="M660 242.23 L660 317.77" stroke-width="15" stroke="#3a7cc3"></path><path d="M680 146.24 L680 413.76" stroke-width="15" stroke="#dd1133"></path><path d="M700 126.94 L700 433.06" stroke-width="15" stroke="#3a7cc3"></path><path d="M720 132.65 L720 427.35" stroke-width="15" stroke="#3a7cc3"></path><path d="M740 170.18 L740 389.82" stroke-width="15" stroke="#dd1133"></path><path d="M760 203.67 L760 356.33" stroke-width="15" stroke="#3a7cc3"></path><path d="M780 119.56 L780 440.44" stroke-width="15" stroke="#3a7cc3"></path><path d="M800 139.19 L800 420.81" stroke-width="15" stroke="#dd1133"></path><path d="M820 212.07 L820 347.93" stroke-width="15" stroke="#dd1133"></path><path d="M840 259.88 L840 300.12" stroke-width="15" stroke="#3a7cc3"></path><path d="M860 259.36 L860 300.64" stroke-width="15" stroke="#dd1133"></path><path d="M880 196.75 L880 363.25" stroke-width="15" stroke="#3a7cc3"></path><path d="M900 151.25 L900 408.75" stroke-width="15" stroke="#3a7cc3"></path><path d="M920 199.56 L920 360.44" stroke-width="15" stroke="#dd1133"></path><path d="M940 150.42 L940 409.58" stroke-width="15" stroke="#3a7cc3"></path><path d="M960 126.84 L960 433.16" stroke-width="15" stroke="#dd1133"></path><path d="M980 113.91 L980 446.1" stroke-width="15" stroke="#3a7cc3"></path><path d="M1000 239.38 L1000 320.63" stroke-width="15" stroke="#3a7cc3"></path><path d="M1020 258.99 L1020 301.01" stroke-width="15" stroke="#dd1133"></path><path d="M1040 259.96 L1040 300.04" stroke-width="15" stroke="#dd1133"></path><path d="M1060 225.31 L1060 334.69" stroke-width="15" stroke="#3a7cc3"></path><path d="M1080 255.52 L1080 304.48" stroke-width="15" stroke="#dd1133"></path><path d="M1100 206.28 L1100 353.72" stroke-width="15" stroke="#3a7cc3"></path><path d="M1120 158.91 L1120 401.09" stroke-width="15" stroke="#3a7cc3"></path><path d="M1140 191.31 L1140 368.69" stroke-width="15" stroke="#dd1133"></path><path d="M1160 155.81 L1160 404.19" stroke-width="15" stroke="#3a7cc3"></path><path d="M1180 151.36 L1180 408.64" stroke-width="15" stroke="#dd1133"></path></g></g><defs><mask id="SvgjsMask1000"><rect width="1440" height="560" fill="#ffffff"></rect></mask></defs></svg>