<svg xmlns="http://www.w3.org/2000/svg" version="1.1" xmlns:xlink="http://www.w3.org/1999/xlink" xmlns:svgjs="http://svgjs.dev/svgjs" width="1440" height="560" preserveAspectRatio="none" viewBox="0 0 1440 560"><g mask="url(&quot;#SvgjsMask1000&quot;)" fill="none"><rect width="1440" height="560" x="0" y="0" fill="#0e2a47"></rect><path d="M0 123.85C42.91 60.42 40.47 47.99 94.71 0C110.47 -13.94 117.36 0 140 0C210 0 210 0 280 0C312.56 0 322.99 -18.86 345.12 0C392.99 40.77 375.26 119.26 420 119.26C474.63 119.26 479.86 54.51 543.85 0C549.86 -5.12 551.92 0 560 0C573.13 0 574.48 -5.27 586.25 0C644.48 26.11 643.53 62.76 700 62.76C753.94 62.76 751.74 24.8 807.06 0C821.74 -6.58 823.53 0 840 0C910 0 910 0 980 0C1050 0 1050 0 1120 0C1190 0 1190 0 1260 0C1330 0 1330 0 1400 0C1470 0 1494.18 -24.18 1540 0C1564.18 12.76 1551.51 40.72 1540 73.89C1527.22 110.72 1496.45 102.2 1491.43 140C1482.76 205.25 1494.57 212.9 1512.61 280C1518.86 303.23 1535.48 297.52 1540 320.65C1549.17 367.52 1540 370.33 1540 420C1540 490 1575 525 1540 560C1505 595 1470 560 1400 560C1330 560 1330 560 1260 560C1190 560 1190 560 1120 560C1070.68 560 1064 574.59 1021.36 560C994 550.64 1001.25 512.11 980 512.11C957.82 512.11 963.3 550.15 934.5 560C893.3 574.09 887.25 560 840 560C770 560 770 560 700 560C630 560 630 560 560 560C490 560 490 560 420 560C350 560 350 560 280 560C245 560 244.97 561.06 210 560C174.97 558.94 173.86 555.76 140 555.76C137.63 555.76 139.95 559.93 137.54 560C69.95 562.05 34.08 594.69 0 560C-34.69 524.69 0 490 0 420C0 350 0 350 0 280C0 210 0 210 0 140C0 131.93 -4.44 130.42 0 123.85" stroke="rgba(51, 121, 194, 0.58)" stroke-width="2"></path><path d="M560 252.35C532.59 252.35 504 264.67 504 280C504 296.28 532.85 315.56 560 315.56C583.7 315.56 605.71 296.44 605.71 280C605.71 264.83 583.45 252.35 560 252.35" stroke="rgba(51, 121, 194, 0.58)" stroke-width="2"></path><path d="M1120 242.67C1099.4 242.67 1090.13 261.21 1090.13 280C1090.13 299.19 1099.14 318.62 1120 318.62C1173.02 318.62 1237.89 299.02 1237.89 280C1237.89 261.04 1173.28 242.67 1120 242.67" stroke="rgba(51, 121, 194, 0.58)" stroke-width="2"></path><path d="M420 364C400.76 364 380 390.29 380 420C380 459.77 400.92 502.96 420 502.96C438.7 502.96 455.56 460.05 455.56 420C455.56 390.57 438.54 364 420 364" stroke="rgba(51, 121, 194, 0.58)" stroke-width="2"></path><path d="M46.67 140C94.15 87.65 81.68 65.42 140 33.79C198.35 2.15 224.32 -11.52 280 13.46C342.7 41.59 343.94 69.71 376.76 140C406.16 202.98 418.19 215.03 404.44 280C388.56 355.03 362 350.68 317.5 420C299.78 447.6 308.04 469.16 280 473.85C219.29 484.01 193.73 426.99 140 449.7C91.8 470.07 119.96 525.48 76.14 560C49.96 580.63 13.41 584.66 0 560C-24.66 514.66 0 490 0 420C0 350 0 350 0 280C0 234.07 -13.49 228.6 0 188.13C9.84 158.6 24.15 164.82 46.67 140" stroke="rgba(51, 121, 194, 0.58)" stroke-width="2"></path><path d="M468.2 140C468.2 97.87 511.65 49.68 560 49.68C614.69 49.68 674.29 98.41 674.29 140C674.29 178.14 615.39 209.14 560 209.14C512.34 209.14 468.2 177.6 468.2 140" stroke="rgba(51, 121, 194, 0.58)" stroke-width="2"></path><path d="M99.7 140C120.62 117.78 112.71 103.1 140 94.14C202.86 73.49 219.45 65.78 280 80.77C312.1 88.71 325.29 108.89 325.29 140C325.29 177.99 310.64 186.83 280 218.97C243.92 256.83 233.72 246.79 191.85 280C163.72 302.31 162.74 302.28 140 330C105.32 372.28 103.15 371.98 77 420C40.52 486.98 49.86 496.14 14.74 560C11.36 566.14 0.7 566.67 0 560C-6.67 496.67 0 490 0 420C0 350 0 350 0 280C0 261.4 -10.28 257.24 0 242.81C39.57 187.24 50.62 192.12 99.7 140" stroke="rgba(51, 121, 194, 0.58)" stroke-width="2"></path><path d="M525.57 140C525.57 124.2 541.87 106.13 560 106.13C580.51 106.13 602.86 124.4 602.86 140C602.86 154.3 580.77 165.93 560 165.93C542.13 165.93 525.57 154.1 525.57 140" stroke="rgba(51, 121, 194, 0.58)" stroke-width="2"></path><path d="M1400 61.25C1380.36 61.25 1363.02 20.19 1363.02 0C1363.02 -10.44 1381.51 0 1400 0C1421.78 0 1443.56 -11.24 1443.56 0C1443.56 19.39 1420.63 61.25 1400 61.25" stroke="rgba(51, 121, 194, 0.58)" stroke-width="2"></path><path d="M935 280C935 254.8 962.91 225.22 980 225.22C993.81 225.22 996.8 253.15 996.8 280C996.8 299.07 992.7 317.06 980 317.06C961.8 317.06 935 300.72 935 280" stroke="rgba(51, 121, 194, 0.58)" stroke-width="2"></path><path d="M606.67 420C617.99 383.93 658.58 383.48 700 383.48C718.79 383.48 719.52 398.88 727.1 420C751.19 487.14 772.75 511.32 763.33 560C759.2 581.32 731.66 560 700 560C672.29 560 657.48 579.35 644.58 560C610.82 509.35 590.28 472.19 606.67 420" stroke="rgba(51, 121, 194, 0.58)" stroke-width="2"></path><path d="M1260 560C1260 547.63 1328.21 527.67 1400 511.88C1468.21 496.87 1491.32 481.67 1540 498.4C1561.32 505.73 1561.39 550.59 1540 560C1491.39 581.39 1470 560 1400 560C1330 560 1260 571.69 1260 560" stroke="rgba(51, 121, 194, 0.58)" stroke-width="2"></path></g><defs><mask id="SvgjsMask1000"><rect width="1440" height="560" fill="#ffffff"></rect></mask></defs></svg>